<svg width="158" height="55" viewBox="0 0 158 55" fill="none" xmlns="http://www.w3.org/2000/svg">
<path d="M86.4971 20.5748C88.3238 22.6148 89.2371 25.9181 89.2371 30.4848V46.3748C89.2648 46.9106 89.1733 47.446 88.9693 47.9422C88.7652 48.4385 88.4537 48.8833 88.0571 49.2448C87.2395 49.932 86.1944 50.2887 85.1271 50.2448C84.076 50.282 83.049 49.9254 82.2471 49.2448C81.8599 48.8764 81.5581 48.4276 81.3629 47.93C81.1676 47.4325 81.0838 46.8982 81.1171 46.3648V30.4848C81.1171 28.1148 80.6971 26.4348 79.8571 25.4148C79.3746 24.8864 78.778 24.4748 78.1126 24.2115C77.4472 23.9481 76.7306 23.8398 76.0171 23.8948C75.0748 23.8619 74.137 24.0396 73.272 24.415C72.4071 24.7904 71.6367 25.354 71.0171 26.0648C69.6901 27.7388 69.0246 29.8421 69.1471 31.9748V46.3748C69.1739 46.9096 69.0831 47.4438 68.8809 47.9397C68.6788 48.4356 68.3702 48.8811 67.9771 49.2448C67.1753 49.9254 66.1482 50.282 65.0971 50.2448C64.0405 50.2784 63.0084 49.9225 62.1971 49.2448C61.8 48.8826 61.4895 48.4356 61.2887 47.9371C61.0878 47.4385 61.0019 46.9011 61.0371 46.3648V30.4848C61.0371 28.1148 60.6171 26.4348 59.7771 25.4148C59.2931 24.8856 58.6947 24.4736 58.0276 24.2102C57.3605 23.9469 56.6422 23.839 55.9271 23.8948C54.9837 23.8539 54.0434 24.028 53.1772 24.404C52.311 24.7799 51.5416 25.3478 50.9271 26.0648C49.6183 27.747 48.9645 29.847 49.0871 31.9748V46.3748C49.1189 46.9102 49.0303 47.4459 48.8278 47.9425C48.6253 48.4392 48.3141 48.8842 47.9171 49.2448C47.1058 49.9225 46.0737 50.2784 45.0171 50.2448C43.9692 50.2814 42.9454 49.9247 42.1471 49.2448C41.757 48.8781 41.4526 48.4299 41.2555 47.9321C41.0585 47.4343 40.9736 46.8991 41.0071 46.3648V21.3648C40.9759 20.8427 41.0652 20.3204 41.2681 19.8384C41.4709 19.3563 41.782 18.9274 42.1771 18.5848C42.9898 17.9095 44.021 17.554 45.0771 17.5848C46.0792 17.5422 47.0607 17.8777 47.8271 18.5248C48.197 18.8692 48.4844 19.2927 48.668 19.7636C48.8515 20.2346 48.9264 20.7409 48.8871 21.2448V22.7948C49.8217 21.1301 51.2085 19.7641 52.8871 18.8548C54.6432 17.9215 56.6089 17.4533 58.5971 17.4948C63.3371 17.4948 66.5038 19.4748 68.0971 23.4348C69.0447 21.6185 70.5007 20.1174 72.2871 19.1148C74.1764 18.0337 76.3206 17.4778 78.4971 17.5048C81.9771 17.5048 84.6171 18.5348 86.4971 20.5748Z" fill="#00526E"/>
<path d="M30.9408 39.6104C31.3341 40.1683 31.5374 40.838 31.5208 41.5204C31.5398 42.0598 31.4495 42.5974 31.2553 43.101C31.0611 43.6045 30.767 44.0635 30.3908 44.4504C30.0158 44.826 29.5674 45.1201 29.0735 45.3145C28.5797 45.509 28.0511 45.5995 27.5208 45.5804C26.8373 45.5686 26.1609 45.4401 25.5208 45.2004L4.01077 36.8704C2.8183 36.4384 1.79048 35.6448 1.07077 34.6004C0.372336 33.5426 0 32.303 0 31.0354C0 29.7679 0.372336 28.5282 1.07077 27.4704C1.79066 26.4056 2.81541 25.583 4.01077 25.1104L25.5208 16.7804C26.1603 16.5373 26.8367 16.4054 27.5208 16.3904C28.0508 16.3737 28.5788 16.4653 29.0722 16.6596C29.5657 16.8539 30.0144 17.1468 30.3908 17.5204C30.7683 17.9085 31.0631 18.3692 31.2573 18.8745C31.4516 19.3799 31.5412 19.9194 31.5208 20.4604C31.5393 21.1516 31.337 21.8307 30.9432 22.399C30.5493 22.9673 29.9845 23.3952 29.3308 23.6204L10.1408 30.9704L29.3308 38.3304C29.9736 38.6032 30.5301 39.0456 30.9408 39.6104Z" fill="#F04E3A"/>
<path d="M106.072 53.9704C105.324 54.4897 104.433 54.7624 103.522 54.7504C102.36 54.7673 101.233 54.3501 100.362 53.5804C99.9198 53.2188 99.5669 52.76 99.331 52.2396C99.0951 51.7192 98.9826 51.1514 99.0022 50.5804C99.0023 50.0757 99.0903 49.5749 99.2622 49.1004L113.922 3.10041C114.175 2.20191 114.716 1.4115 115.462 0.851228C116.209 0.290952 117.119 -0.00803985 118.052 0.000414088C119.224 -0.0149455 120.362 0.397455 121.252 1.16041C121.695 1.52345 122.05 1.98183 122.291 2.50131C122.531 3.0208 122.651 3.58795 122.642 4.16041C122.602 4.64104 122.515 5.1166 122.382 5.58041L107.722 51.5804C107.459 52.5409 106.877 53.3835 106.072 53.9704Z" fill="#F04E3A"/>
<path d="M156.192 27.4704C156.884 28.5305 157.253 29.7693 157.253 31.0354C157.253 32.3015 156.884 33.5403 156.192 34.6004C155.472 35.6448 154.445 36.4383 153.252 36.8704L131.742 45.2004C131.104 45.4489 130.426 45.5777 129.742 45.5804C129.212 45.5995 128.683 45.509 128.189 45.3145C127.696 45.1201 127.247 44.8259 126.872 44.4504C126.492 44.0659 126.196 43.6073 126.002 43.1032C125.807 42.599 125.719 42.0602 125.742 41.5204C125.725 40.838 125.929 40.1683 126.322 39.6104C126.733 39.0508 127.29 38.615 127.932 38.3504L147.112 30.9704L127.932 23.6004C127.28 23.3745 126.716 22.9473 126.322 22.3804C125.931 21.8102 125.728 21.1318 125.742 20.4404C125.722 19.8994 125.811 19.3599 126.006 18.8545C126.2 18.3491 126.495 17.8885 126.872 17.5004C127.249 17.1268 127.697 16.8339 128.191 16.6396C128.684 16.4453 129.212 16.3537 129.742 16.3704C130.426 16.3854 131.103 16.5173 131.742 16.7604L153.252 25.0904C154.45 25.5683 155.475 26.3981 156.192 27.4704Z" fill="#F04E3A"/>
</svg>
