<svg id="Layer_1" data-name="Layer 1" xmlns="http://www.w3.org/2000/svg" viewBox="0 0 444.49 82.98"><defs><style>.cls-1{fill:#f04e3a;}.cls-2{fill:#00526e;}</style></defs><path class="cls-1" d="M42.12,52.64a3.18,3.18,0,0,1,.58,1.91,4,4,0,0,1-1.13,2.93,3.86,3.86,0,0,1-2.87,1.13,6,6,0,0,1-2-.38L15.19,49.9a6.09,6.09,0,0,1-2.94-2.27,6.47,6.47,0,0,1,0-7.13,6.38,6.38,0,0,1,2.94-2.36L36.7,29.81a6,6,0,0,1,2-.39,3.9,3.9,0,0,1,2.87,1.13,4,4,0,0,1,1.13,2.94,3.25,3.25,0,0,1-2.19,3.16L21.32,44l19.19,7.36A3.85,3.85,0,0,1,42.12,52.64Z"/><path class="cls-2" d="M96,33.33q2.74,3.06,2.74,9.91V59.13A3.63,3.63,0,0,1,97.56,62a4.28,4.28,0,0,1-2.93,1,4.22,4.22,0,0,1-2.88-1,3.66,3.66,0,0,1-1.13-2.88V43.24c0-2.37-.42-4.05-1.26-5.07a4.71,4.71,0,0,0-3.84-1.52,6.34,6.34,0,0,0-5,2.17,8.71,8.71,0,0,0-1.87,5.91v14.4A3.66,3.66,0,0,1,77.48,62a4.22,4.22,0,0,1-2.88,1,4.31,4.31,0,0,1-2.9-1,3.58,3.58,0,0,1-1.16-2.88V43.24c0-2.37-.42-4.05-1.26-5.07a4.72,4.72,0,0,0-3.85-1.52,6.23,6.23,0,0,0-5,2.17,8.8,8.8,0,0,0-1.84,5.91v14.4A3.59,3.59,0,0,1,57.42,62a4.31,4.31,0,0,1-2.9,1,4.2,4.2,0,0,1-2.87-1,3.64,3.64,0,0,1-1.14-2.88v-25a3.41,3.41,0,0,1,1.17-2.78,4.34,4.34,0,0,1,2.9-1,4,4,0,0,1,2.75.94A3.36,3.36,0,0,1,58.39,34v1.55a10.11,10.11,0,0,1,4-3.94,11.65,11.65,0,0,1,5.71-1.36q7.11,0,9.5,5.94a10.55,10.55,0,0,1,4.19-4.32A12.2,12.2,0,0,1,88,30.26C91.48,30.26,94.12,31.29,96,33.33Z"/><path class="cls-2" d="M130.37,33.52q3.21,3.27,3.2,9.92V59.19a3.64,3.64,0,0,1-1,2.75,3.91,3.91,0,0,1-2.84,1,3.78,3.78,0,0,1-2.75-1,3.61,3.61,0,0,1-1.06-2.72V57.78a8.48,8.48,0,0,1-3.46,3.93A10.34,10.34,0,0,1,117,63.14a12.59,12.59,0,0,1-5.75-1.3,10.11,10.11,0,0,1-4.06-3.55,9,9,0,0,1-1.49-5,7.93,7.93,0,0,1,1.78-5.48,10.6,10.6,0,0,1,5.78-2.91,52.07,52.07,0,0,1,11-.91h1.62V42.47a6.64,6.64,0,0,0-1.36-4.62c-.9-1-2.37-1.45-4.39-1.45a13.77,13.77,0,0,0-3.81.55q-1.93.54-4.59,1.58a6.48,6.48,0,0,1-2.45.84,2.44,2.44,0,0,1-1.91-.84,3.22,3.22,0,0,1-.74-2.2,3.27,3.27,0,0,1,.55-1.9A5.21,5.21,0,0,1,109,32.91,21.22,21.22,0,0,1,114.42,31a28,28,0,0,1,6.17-.71Q127.18,30.26,130.37,33.52Zm-6.52,21.64a7.82,7.82,0,0,0,2-5.59V48.22h-1.17a45.8,45.8,0,0,0-6.71.38A6.51,6.51,0,0,0,114.58,50a3.46,3.46,0,0,0-1,2.65A4.37,4.37,0,0,0,115,56a5.15,5.15,0,0,0,3.59,1.32A6.89,6.89,0,0,0,123.85,55.16Z"/><path class="cls-2" d="M147.49,61.13A13.62,13.62,0,0,1,142,55.45,18.2,18.2,0,0,1,140,46.86a18.13,18.13,0,0,1,2-8.69,14.49,14.49,0,0,1,5.72-5.84,16.94,16.94,0,0,1,8.46-2.07,19,19,0,0,1,5.07.71,16.86,16.86,0,0,1,4.49,1.94,4,4,0,0,1,2.07,3.42,3.68,3.68,0,0,1-.68,2.3,2.15,2.15,0,0,1-1.78.87,3.75,3.75,0,0,1-1.48-.33,11.75,11.75,0,0,1-1.55-.77,17.82,17.82,0,0,0-2.72-1.33,8.49,8.49,0,0,0-3-.48,7.55,7.55,0,0,0-6.17,2.62q-2.16,2.61-2.16,7.52t2.16,7.46a7.58,7.58,0,0,0,6.17,2.62,7.83,7.83,0,0,0,2.88-.49A24.22,24.22,0,0,0,162.38,55a11.87,11.87,0,0,1,1.67-.87,3.66,3.66,0,0,1,1.43-.29,2.15,2.15,0,0,1,1.74.9,4,4,0,0,1,.22,4.17,4.32,4.32,0,0,1-1.58,1.45,16.73,16.73,0,0,1-4.65,2,19.75,19.75,0,0,1-5.42.75A16.67,16.67,0,0,1,147.49,61.13Z"/><path class="cls-2" d="M202.68,59.13a3.81,3.81,0,0,1-1.07,2.65,3.29,3.29,0,0,1-2.49,1.16,3.79,3.79,0,0,1-2.64-1.16L181.36,48.09v11A3.46,3.46,0,0,1,180.2,62a4.35,4.35,0,0,1-2.91,1,4.23,4.23,0,0,1-2.87-1,3.53,3.53,0,0,1-1.13-2.84V20.57a3.56,3.56,0,0,1,1.13-2.84,4.28,4.28,0,0,1,2.87-1,4.41,4.41,0,0,1,2.91,1,3.48,3.48,0,0,1,1.16,2.84V44.86l13.83-13.24a3.6,3.6,0,0,1,2.64-1.16,3.72,3.72,0,0,1,3.68,3.68,3.79,3.79,0,0,1-1.22,2.71l-10.14,9.43,11.24,10.07A3.76,3.76,0,0,1,202.68,59.13Z"/><path class="cls-2" d="M234.23,54.8a3.52,3.52,0,0,1,.67,2.26c0,1.34-.79,2.46-2.38,3.36a21.47,21.47,0,0,1-5,2,20.26,20.26,0,0,1-5.29.75q-7.62,0-12.08-4.4t-4.46-12a18.46,18.46,0,0,1,1.94-8.59,14.11,14.11,0,0,1,5.46-5.81,15.43,15.43,0,0,1,8-2.07,14.38,14.38,0,0,1,7.43,1.87,12.78,12.78,0,0,1,4.91,5.3,17.59,17.59,0,0,1,1.75,8.07c0,1.86-.82,2.78-2.46,2.78H213.66q.39,4.45,2.52,6.56c1.42,1.4,3.48,2.09,6.19,2.09a11.87,11.87,0,0,0,3.65-.51A35.65,35.65,0,0,0,229.61,55a7.15,7.15,0,0,1,2.84-1A2.22,2.22,0,0,1,234.23,54.8ZM216,38A9.79,9.79,0,0,0,213.66,44h14.59a9.21,9.21,0,0,0-1.93-6,6.4,6.4,0,0,0-5-2A6.94,6.94,0,0,0,216,38Z"/><path class="cls-2" d="M264.65,31a3.55,3.55,0,0,1,1.9-.54,4,4,0,0,1,2.68,1,3.09,3.09,0,0,1,1.2,2.48,3.31,3.31,0,0,1-.39,1.49L252.41,72.37a3.6,3.6,0,0,1-3.42,2.2,3.94,3.94,0,0,1-2.62-.94,2.94,2.94,0,0,1-1.13-2.36,4.13,4.13,0,0,1,.39-1.61L250,60.42l-12-25a3.23,3.23,0,0,1-.32-1.49,3.17,3.17,0,0,1,1.25-2.52,4.46,4.46,0,0,1,2.88-1,3.74,3.74,0,0,1,2,.55,3.69,3.69,0,0,1,1.42,1.71l9,20,9-19.89A3.74,3.74,0,0,1,264.65,31Z"/><path class="cls-2" d="M304,17.8a3.43,3.43,0,0,1,1.16,2.71V59.13a3.65,3.65,0,0,1-1.09,2.78,4.61,4.61,0,0,1-5.81,0,3.62,3.62,0,0,1-1.1-2.78V57.52a10.15,10.15,0,0,1-4.11,4.13,12.36,12.36,0,0,1-6.1,1.49,13.06,13.06,0,0,1-7.26-2.07,13.72,13.72,0,0,1-5-5.85A20.21,20.21,0,0,1,273,46.54,19.61,19.61,0,0,1,274.72,38,13,13,0,0,1,287,30.26,12.71,12.71,0,0,1,293,31.68a9.83,9.83,0,0,1,4.07,4V20.38a3.44,3.44,0,0,1,1.07-2.62,4.06,4.06,0,0,1,2.87-1A4.29,4.29,0,0,1,304,17.8Zm-8.94,36.42q2.1-2.64,2.1-7.55t-2.1-7.53a7.16,7.16,0,0,0-5.91-2.61,7.35,7.35,0,0,0-6,2.58Q281,41.69,281,46.54t2.13,7.62a8,8,0,0,0,11.92.06Z"/><path class="cls-2" d="M340.28,54.8a3.52,3.52,0,0,1,.67,2.26c0,1.34-.79,2.46-2.38,3.36a21.47,21.47,0,0,1-5,2,20.32,20.32,0,0,1-5.29.75q-7.62,0-12.08-4.4t-4.46-12a18.46,18.46,0,0,1,1.94-8.59,14.11,14.11,0,0,1,5.46-5.81,15.4,15.4,0,0,1,8-2.07,14.41,14.41,0,0,1,7.43,1.87,12.78,12.78,0,0,1,4.91,5.3,17.59,17.59,0,0,1,1.74,8.07c0,1.86-.82,2.78-2.45,2.78H319.71c.25,3,1.1,5.16,2.51,6.56s3.49,2.09,6.2,2.09a11.87,11.87,0,0,0,3.65-.51A35.65,35.65,0,0,0,335.66,55a7.15,7.15,0,0,1,2.84-1A2.22,2.22,0,0,1,340.28,54.8ZM322.06,38A9.73,9.73,0,0,0,319.71,44H334.3a9.21,9.21,0,0,0-1.93-6,6.4,6.4,0,0,0-5-2A6.94,6.94,0,0,0,322.06,38Z"/><path class="cls-2" d="M370.7,31a3.32,3.32,0,0,1,1.9-.58,4.09,4.09,0,0,1,2.68,1,3.12,3.12,0,0,1,1.2,2.49,3.45,3.45,0,0,1-.39,1.55l-11.95,25a4.26,4.26,0,0,1-1.64,1.88,4.47,4.47,0,0,1-2.36.64,4.71,4.71,0,0,1-2.36-.64,4.17,4.17,0,0,1-1.71-1.88l-12-25a3.24,3.24,0,0,1-.33-1.49A3.15,3.15,0,0,1,345,31.42a4.46,4.46,0,0,1,2.88-1,3.59,3.59,0,0,1,3.42,2.26l9,20,9-19.89A3.94,3.94,0,0,1,370.7,31Z"/><path class="cls-1" d="M383.55,67a4.37,4.37,0,0,1-2.55.78,4.67,4.67,0,0,1-3.16-1.17,3.71,3.71,0,0,1-1.36-3,4.35,4.35,0,0,1,.26-1.48l14.66-46a4.25,4.25,0,0,1,4.13-3.1,4.82,4.82,0,0,1,3.2,1.16,3.8,3.8,0,0,1,1.39,3,7.46,7.46,0,0,1-.26,1.42l-14.66,46A4.4,4.4,0,0,1,383.55,67Z"/><path class="cls-1" d="M433.67,40.5a6.52,6.52,0,0,1,0,7.13,6.09,6.09,0,0,1-2.94,2.27l-21.51,8.33a5.57,5.57,0,0,1-2,.38,3.86,3.86,0,0,1-2.87-1.13,3.93,3.93,0,0,1-1.13-2.93,3.18,3.18,0,0,1,.58-1.91,3.79,3.79,0,0,1,1.61-1.26L424.59,44l-19.18-7.37a3.26,3.26,0,0,1-1.61-1.22,3.31,3.31,0,0,1-.58-1.94,4,4,0,0,1,1.13-2.94,3.9,3.9,0,0,1,2.87-1.13,6,6,0,0,1,2,.39l21.51,8.33A6.38,6.38,0,0,1,433.67,40.5Z"/></svg>