<svg width="99" height="55" viewBox="0 0 99 55" fill="none" xmlns="http://www.w3.org/2000/svg">
<path d="M30.9408 39.6104C31.3341 40.1683 31.5374 40.838 31.5208 41.5204C31.5398 42.0598 31.4495 42.5974 31.2553 43.101C31.0611 43.6045 30.767 44.0635 30.3908 44.4504C30.0158 44.826 29.5674 45.1201 29.0735 45.3145C28.5797 45.509 28.0511 45.5995 27.5208 45.5804C26.8373 45.5686 26.1609 45.4401 25.5208 45.2004L4.01077 36.8704C2.8183 36.4384 1.79048 35.6448 1.07077 34.6004C0.372336 33.5426 0 32.303 0 31.0354C0 29.7679 0.372336 28.5282 1.07077 27.4704C1.79066 26.4056 2.81541 25.583 4.01077 25.1104L25.5208 16.7804C26.1603 16.5373 26.8367 16.4054 27.5208 16.3904C28.0508 16.3737 28.5788 16.4653 29.0722 16.6596C29.5657 16.8539 30.0144 17.1468 30.3908 17.5204C30.7683 17.9085 31.0631 18.3692 31.2573 18.8745C31.4516 19.3799 31.5412 19.9194 31.5208 20.4604C31.5393 21.1516 31.337 21.8307 30.9432 22.399C30.5493 22.9673 29.9845 23.3952 29.3308 23.6204L10.1408 30.9704L29.3308 38.3304C29.9736 38.6032 30.5301 39.0456 30.9408 39.6104Z" fill="#F04E3A"/>
<path d="M47.0722 53.9704C46.3242 54.4897 45.4327 54.7624 44.5222 54.7504C43.3599 54.7673 42.2332 54.3501 41.3622 53.5804C40.9198 53.2188 40.5669 52.76 40.331 52.2396C40.0951 51.7192 39.9826 51.1514 40.0022 50.5804C40.0023 50.0757 40.0903 49.5749 40.2622 49.1004L54.9222 3.10041C55.1747 2.20191 55.7159 1.4115 56.4624 0.851228C57.2088 0.290952 58.1189 -0.00803985 59.0522 0.000414088C60.2244 -0.0149455 61.3621 0.397455 62.2522 1.16041C62.6949 1.52345 63.0499 1.98183 63.2905 2.50131C63.5312 3.0208 63.6514 3.58795 63.6422 4.16041C63.6016 4.64104 63.5145 5.1166 63.3822 5.58041L48.7222 51.5804C48.4585 52.5409 47.8768 53.3835 47.0722 53.9704Z" fill="#F04E3A"/>
<path d="M97.1922 27.4704C97.8845 28.5305 98.2531 29.7693 98.2531 31.0354C98.2531 32.3015 97.8845 33.5403 97.1922 34.6004C96.4724 35.6448 95.4446 36.4383 94.2522 36.8704L72.7421 45.2004C72.1045 45.4489 71.4265 45.5777 70.7421 45.5804C70.2118 45.5995 69.6832 45.509 69.1894 45.3145C68.6956 45.1201 68.2472 44.8259 67.8722 44.4504C67.4925 44.0659 67.1962 43.6073 67.0018 43.1032C66.8073 42.599 66.719 42.0602 66.7421 41.5204C66.7255 40.838 66.9288 40.1683 67.3221 39.6104C67.7332 39.0508 68.2902 38.615 68.9321 38.3504L88.1121 30.9704L68.9321 23.6004C68.2798 23.3745 67.7161 22.9473 67.3221 22.3804C66.9309 21.8102 66.7281 21.1318 66.7421 20.4404C66.7217 19.8994 66.8114 19.3599 67.0056 18.8545C67.1998 18.3491 67.4946 17.8885 67.8722 17.5004C68.2486 17.1268 68.6972 16.8339 69.1907 16.6396C69.6842 16.4453 70.2121 16.3537 70.7421 16.3704C71.4262 16.3854 72.1026 16.5173 72.7421 16.7604L94.2522 25.0904C95.4502 25.5683 96.4753 26.3981 97.1922 27.4704Z" fill="#F04E3A"/>
</svg>
