<svg width="25" height="25" viewBox="0 0 25 25" fill="none" xmlns="http://www.w3.org/2000/svg">
<path d="M0.455332 19.3516C0.148048 19.8165 -0.0108242 20.3746 0.0022049 20.9433C-0.0126781 21.3927 0.0578632 21.8408 0.209581 22.2604C0.3613 22.68 0.591055 23.0625 0.885019 23.3849C1.17799 23.6979 1.52831 23.943 1.9141 24.105C2.29989 24.2671 2.71286 24.3425 3.1272 24.3266C3.66115 24.3168 4.18958 24.2097 4.6897 24.0099L21.4944 17.0683C22.426 16.7082 23.229 16.0469 23.7913 15.1766C24.3369 14.2951 24.6278 13.2621 24.6278 12.2058C24.6278 11.1495 24.3369 10.1164 23.7913 9.23494C23.2289 8.34755 22.4283 7.66206 21.4944 7.26827L4.6897 0.326608C4.19005 0.12404 3.6616 0.0141227 3.1272 0.00160834C2.71308 -0.0122934 2.30065 0.0640449 1.91513 0.225955C1.52961 0.387866 1.17909 0.631946 0.885019 0.943274C0.590086 1.26667 0.35977 1.65056 0.208023 2.07169C0.0562763 2.49282 -0.0137444 2.94243 0.0022049 3.39328C-0.0123081 3.96926 0.145775 4.53517 0.453468 5.00875C0.761164 5.48233 1.20244 5.83889 1.71314 6.02661L16.7053 12.1516L1.71314 18.2849C1.21095 18.5122 0.776157 18.881 0.455332 19.3516Z" fill="#F04E3A"/>
</svg>
